# xmcd CD database file
#
# Track frame offsets:
#	150
#	25547
#	60360
#	81230
#	99615
#	128660
#	152367
#	178540
#	207347
#
# Disc length: 3073 seconds
#
# Revision: 0
# Processed by: cddbd v1.5.1PL0 Copyright (c) Steve Scherf et al.
# Submitted via: CDex 1.51
#
DISCID=630bff09
DTITLE=The Quintet - A Night In Tunisia
DYEAR=2004
DGENRE=Jazz
TTITLE0=Quicksilver
TTITLE1=A Night In Tunisia
TTITLE2=Confirmation
TTITLE3=If I Had You
TTITLE4=Split Kick
TTITLE5=Mayreh
TTITLE6=Nos's The Time
TTITLE7=Once In A While
TTITLE8=Wee Dot
EXTD=YEAR: 2004
EXTT0=
EXTT1=
EXTT2=
EXTT3=
EXTT4=
EXTT5=
EXTT6=
EXTT7=
EXTT8=
PLAYORDER=
